<svg width="502" height="286" viewBox="0 0 502 286" fill="none" xmlns="http://www.w3.org/2000/svg">
<path fill-rule="evenodd" clip-rule="evenodd" d="M83.5661 140.431L81.9524 16.6923L499.294 1.8535L481.649 283.196L88.6234 273.392L86.7092 182.335L1.85425 218.476L83.5661 140.431Z" fill="#F38678"/>
<mask id="mask0" mask-type="alpha" maskUnits="userSpaceOnUse" x="0" y="0" width="502" height="286">
<path fill-rule="evenodd" clip-rule="evenodd" d="M0 0H501.15V285.051H0V0Z" fill="white"/>
</mask>
<g mask="url(#mask0)">
<path fill-rule="evenodd" clip-rule="evenodd" d="M90.4413 271.582L479.91 281.297L497.316 3.78069L83.8315 18.4823L85.4211 140.408C85.4276 140.923 85.2199 141.417 84.848 141.773L10.511 212.774L85.9813 180.63C86.5489 180.387 87.1971 180.443 87.7156 180.778C88.2321 181.112 88.5503 181.681 88.5642 182.297L90.4413 271.582ZM481.651 285.051C481.636 285.051 481.619 285.051 481.603 285.05L88.5783 275.247C87.5878 275.223 86.7902 274.423 86.7698 273.432L84.9122 185.118L2.58172 220.184C1.75724 220.535 0.799207 220.247 0.306744 219.499C-0.187575 218.75 -0.0744287 217.756 0.573843 217.137L81.7014 139.649L80.0988 16.7181C80.0859 15.7099 80.8797 14.8762 81.8869 14.84L499.229 0.0011805C499.781 -0.0182955 500.259 0.186666 500.625 0.561346C500.99 0.936954 501.179 1.44889 501.147 1.97104L483.501 283.312C483.44 284.293 482.627 285.051 481.651 285.051V285.051Z" fill="#F38678"/>
</g>
</svg>
