<svg width="127" height="50" viewBox="0 0 127 50" fill="none" xmlns="http://www.w3.org/2000/svg">
<path d="M6.744 19.216C5.656 19.216 4.68 19.024 3.816 18.64C2.952 18.24 2.264 17.704 1.752 17.032C1.256 16.36 0.984 15.616 0.936 14.8H4.32C4.384 15.312 4.632 15.736 5.064 16.072C5.512 16.408 6.064 16.576 6.72 16.576C7.36 16.576 7.856 16.448 8.208 16.192C8.576 15.936 8.76 15.608 8.76 15.208C8.76 14.776 8.536 14.456 8.088 14.248C7.656 14.024 6.96 13.784 6 13.528C5.008 13.288 4.192 13.04 3.552 12.784C2.928 12.528 2.384 12.136 1.92 11.608C1.472 11.08 1.248 10.368 1.248 9.472C1.248 8.736 1.456 8.064 1.872 7.456C2.304 6.848 2.912 6.368 3.696 6.016C4.496 5.664 5.432 5.488 6.504 5.488C8.088 5.488 9.352 5.888 10.296 6.688C11.24 7.472 11.76 8.536 11.856 9.88H8.64C8.592 9.352 8.368 8.936 7.968 8.632C7.584 8.312 7.064 8.152 6.408 8.152C5.8 8.152 5.328 8.264 4.992 8.488C4.672 8.712 4.512 9.024 4.512 9.424C4.512 9.872 4.736 10.216 5.184 10.456C5.632 10.68 6.328 10.912 7.272 11.152C8.232 11.392 9.024 11.64 9.648 11.896C10.272 12.152 10.808 12.552 11.256 13.096C11.72 13.624 11.96 14.328 11.976 15.208C11.976 15.976 11.76 16.664 11.328 17.272C10.912 17.88 10.304 18.36 9.504 18.712C8.72 19.048 7.8 19.216 6.744 19.216ZM28.4141 12.064C28.4141 12.544 28.3821 12.976 28.3181 13.36H18.5981C18.6781 14.32 19.0141 15.072 19.6061 15.616C20.1981 16.16 20.9261 16.432 21.7901 16.432C23.0381 16.432 23.9261 15.896 24.4541 14.824H28.0781C27.6941 16.104 26.9581 17.16 25.8701 17.992C24.7821 18.808 23.4461 19.216 21.8621 19.216C20.5821 19.216 19.4301 18.936 18.4061 18.376C17.3981 17.8 16.6061 16.992 16.0301 15.952C15.4701 14.912 15.1901 13.712 15.1901 12.352C15.1901 10.976 15.4701 9.768 16.0301 8.728C16.5901 7.688 17.3741 6.888 18.3821 6.328C19.3901 5.768 20.5501 5.488 21.8621 5.488C23.1261 5.488 24.2541 5.76 25.2461 6.304C26.2541 6.848 27.0301 7.624 27.5741 8.632C28.1341 9.624 28.4141 10.768 28.4141 12.064ZM24.9341 11.104C24.9181 10.24 24.6061 9.552 23.9981 9.04C23.3901 8.512 22.6461 8.248 21.7661 8.248C20.9341 8.248 20.2301 8.504 19.6541 9.016C19.0941 9.512 18.7501 10.208 18.6221 11.104H24.9341ZM35.5466 7.768C35.9786 7.064 36.5386 6.512 37.2266 6.112C37.9306 5.712 38.7306 5.512 39.6266 5.512V9.04H38.7386C37.6826 9.04 36.8826 9.288 36.3386 9.784C35.8106 10.28 35.5466 11.144 35.5466 12.376V19H32.1866V5.704H35.5466V7.768ZM48.7537 15.904L52.1137 5.704H55.6898L50.7697 19H46.6897L41.7937 5.704H45.3937L48.7537 15.904ZM60.6009 4.12C60.0089 4.12 59.5129 3.936 59.1129 3.568C58.7289 3.184 58.5369 2.712 58.5369 2.152C58.5369 1.592 58.7289 1.128 59.1129 0.759999C59.5129 0.375999 60.0089 0.183999 60.6009 0.183999C61.1929 0.183999 61.6809 0.375999 62.0649 0.759999C62.4649 1.128 62.6649 1.592 62.6649 2.152C62.6649 2.712 62.4649 3.184 62.0649 3.568C61.6809 3.936 61.1929 4.12 60.6009 4.12ZM62.2569 5.704V19H58.8969V5.704H62.2569ZM66.0326 12.352C66.0326 10.976 66.3126 9.776 66.8726 8.752C67.4326 7.712 68.2086 6.912 69.2006 6.352C70.1926 5.776 71.3286 5.488 72.6086 5.488C74.2566 5.488 75.6166 5.904 76.6886 6.736C77.7766 7.552 78.5046 8.704 78.8726 10.192H75.2486C75.0566 9.616 74.7286 9.168 74.2646 8.848C73.8166 8.512 73.2566 8.344 72.5846 8.344C71.6246 8.344 70.8646 8.696 70.3046 9.4C69.7446 10.088 69.4646 11.072 69.4646 12.352C69.4646 13.616 69.7446 14.6 70.3046 15.304C70.8646 15.992 71.6246 16.336 72.5846 16.336C73.9446 16.336 74.8326 15.728 75.2486 14.512H78.8726C78.5046 15.952 77.7766 17.096 76.6886 17.944C75.6006 18.792 74.2406 19.216 72.6086 19.216C71.3286 19.216 70.1926 18.936 69.2006 18.376C68.2086 17.8 67.4326 17 66.8726 15.976C66.3126 14.936 66.0326 13.728 66.0326 12.352ZM84.3581 4.12C83.7661 4.12 83.2701 3.936 82.8701 3.568C82.4861 3.184 82.2941 2.712 82.2941 2.152C82.2941 1.592 82.4861 1.128 82.8701 0.759999C83.2701 0.375999 83.7661 0.183999 84.3581 0.183999C84.9501 0.183999 85.4381 0.375999 85.8221 0.759999C86.2221 1.128 86.4221 1.592 86.4221 2.152C86.4221 2.712 86.2221 3.184 85.8221 3.568C85.4381 3.936 84.9501 4.12 84.3581 4.12ZM86.0141 5.704V19H82.6541V5.704H86.0141ZM92.3578 4.12C91.7658 4.12 91.2698 3.936 90.8698 3.568C90.4858 3.184 90.2938 2.712 90.2938 2.152C90.2938 1.592 90.4858 1.128 90.8698 0.759999C91.2698 0.375999 91.7658 0.183999 92.3578 0.183999C92.9498 0.183999 93.4378 0.375999 93.8218 0.759999C94.2218 1.128 94.4218 1.592 94.4218 2.152C94.4218 2.712 94.2218 3.184 93.8218 3.568C93.4378 3.936 92.9498 4.12 92.3578 4.12ZM94.0138 5.704V19H90.6538V5.704H94.0138ZM4.104 28.312V36.448C4.104 37.248 4.256 37.8 4.56 38.104C4.864 38.408 5.4 38.56 6.168 38.56H7.704V40H5.904C4.72 40 3.84 39.728 3.264 39.184C2.688 38.624 2.4 37.712 2.4 36.448V28.312H0.576V26.896H2.4V23.608H4.104V26.896H7.704V28.312H4.104ZM23.2907 32.776C23.2907 33.352 23.2747 33.792 23.2427 34.096H12.3707C12.4187 35.088 12.6587 35.936 13.0907 36.64C13.5227 37.344 14.0907 37.88 14.7947 38.248C15.4987 38.6 16.2667 38.776 17.0987 38.776C18.1867 38.776 19.0987 38.512 19.8347 37.984C20.5867 37.456 21.0827 36.744 21.3227 35.848H23.0987C22.7787 37.128 22.0907 38.176 21.0347 38.992C19.9947 39.792 18.6827 40.192 17.0987 40.192C15.8667 40.192 14.7627 39.92 13.7867 39.376C12.8107 38.816 12.0427 38.032 11.4827 37.024C10.9387 36 10.6667 34.808 10.6667 33.448C10.6667 32.088 10.9387 30.896 11.4827 29.872C12.0267 28.848 12.7867 28.064 13.7627 27.52C14.7387 26.976 15.8507 26.704 17.0987 26.704C18.3467 26.704 19.4347 26.976 20.3627 27.52C21.3067 28.064 22.0267 28.8 22.5227 29.728C23.0347 30.64 23.2907 31.656 23.2907 32.776ZM21.5867 32.728C21.6027 31.752 21.4027 30.92 20.9867 30.232C20.5867 29.544 20.0347 29.024 19.3307 28.672C18.6267 28.32 17.8587 28.144 17.0267 28.144C15.7787 28.144 14.7147 28.544 13.8347 29.344C12.9547 30.144 12.4667 31.272 12.3707 32.728H21.5867ZM33.5644 26.656C34.5564 26.656 35.4444 26.864 36.2284 27.28C37.0284 27.696 37.6524 28.336 38.1004 29.2C38.5644 30.048 38.7964 31.088 38.7964 32.32V40H37.1404V32.512C37.1404 31.088 36.7804 30 36.0604 29.248C35.3564 28.496 34.3884 28.12 33.1564 28.12C31.8924 28.12 30.8844 28.52 30.1324 29.32C29.3804 30.12 29.0044 31.296 29.0044 32.848V40H27.3244V22.24H29.0044V29.128C29.4204 28.344 30.0284 27.736 30.8284 27.304C31.6444 26.872 32.5564 26.656 33.5644 26.656ZM49.6159 26.656C51.1839 26.656 52.4639 27.144 53.4559 28.12C54.4479 29.08 54.9439 30.48 54.9439 32.32V40H53.2879V32.512C53.2879 31.088 52.9279 30 52.2079 29.248C51.5039 28.496 50.5359 28.12 49.3039 28.12C48.0399 28.12 47.0319 28.52 46.2799 29.32C45.5279 30.12 45.1519 31.296 45.1519 32.848V40H43.4719V26.896H45.1519V29.128C45.5679 28.328 46.1679 27.72 46.9519 27.304C47.7359 26.872 48.6239 26.656 49.6159 26.656ZM60.4594 24.424C60.1234 24.424 59.8354 24.304 59.5954 24.064C59.3554 23.824 59.2354 23.528 59.2354 23.176C59.2354 22.824 59.3554 22.536 59.5954 22.312C59.8354 22.072 60.1234 21.952 60.4594 21.952C60.7954 21.952 61.0834 22.072 61.3234 22.312C61.5634 22.536 61.6834 22.824 61.6834 23.176C61.6834 23.528 61.5634 23.824 61.3234 24.064C61.0834 24.304 60.7954 24.424 60.4594 24.424ZM61.2994 26.896V40H59.6194V26.896H61.2994ZM65.2958 33.448C65.2958 32.088 65.5678 30.904 66.1118 29.896C66.6558 28.872 67.4078 28.088 68.3678 27.544C69.3278 26.984 70.4238 26.704 71.6558 26.704C73.2718 26.704 74.5998 27.104 75.6398 27.904C76.6958 28.704 77.3758 29.792 77.6798 31.168H75.8798C75.6558 30.224 75.1678 29.488 74.4158 28.96C73.6798 28.416 72.7598 28.144 71.6558 28.144C70.7758 28.144 69.9838 28.344 69.2798 28.744C68.5758 29.144 68.0158 29.744 67.5998 30.544C67.1998 31.328 66.9998 32.296 66.9998 33.448C66.9998 34.6 67.1998 35.576 67.5998 36.376C68.0158 37.176 68.5758 37.776 69.2798 38.176C69.9838 38.576 70.7758 38.776 71.6558 38.776C72.7598 38.776 73.6798 38.512 74.4158 37.984C75.1678 37.44 75.6558 36.688 75.8798 35.728H77.6798C77.3758 37.072 76.6958 38.152 75.6398 38.968C74.5838 39.784 73.2558 40.192 71.6558 40.192C70.4238 40.192 69.3278 39.92 68.3678 39.376C67.4078 38.816 66.6558 38.032 66.1118 37.024C65.5678 36 65.2958 34.808 65.2958 33.448ZM93.5985 32.776C93.5985 33.352 93.5825 33.792 93.5505 34.096H82.6785C82.7265 35.088 82.9665 35.936 83.3985 36.64C83.8305 37.344 84.3985 37.88 85.1025 38.248C85.8065 38.6 86.5745 38.776 87.4065 38.776C88.4945 38.776 89.4065 38.512 90.1425 37.984C90.8945 37.456 91.3905 36.744 91.6305 35.848H93.4065C93.0865 37.128 92.3985 38.176 91.3425 38.992C90.3025 39.792 88.9905 40.192 87.4065 40.192C86.1745 40.192 85.0705 39.92 84.0945 39.376C83.1185 38.816 82.3505 38.032 81.7905 37.024C81.2465 36 80.9745 34.808 80.9745 33.448C80.9745 32.088 81.2465 30.896 81.7905 29.872C82.3345 28.848 83.0945 28.064 84.0705 27.52C85.0465 26.976 86.1585 26.704 87.4065 26.704C88.6545 26.704 89.7425 26.976 90.6705 27.52C91.6145 28.064 92.3345 28.8 92.8305 29.728C93.3425 30.64 93.5985 31.656 93.5985 32.776ZM91.8945 32.728C91.9105 31.752 91.7105 30.92 91.2945 30.232C90.8945 29.544 90.3425 29.024 89.6385 28.672C88.9345 28.32 88.1665 28.144 87.3345 28.144C86.0865 28.144 85.0225 28.544 84.1425 29.344C83.2625 30.144 82.7745 31.272 82.6785 32.728H91.8945Z" fill="black"/>
<path fill-rule="evenodd" clip-rule="evenodd" d="M113.578 29.8958H106.542V38.4896C106.542 39.4388 105.772 40.2083 104.823 40.2083C103.874 40.2083 103.104 39.4388 103.104 38.4896V29.8958H101.958C101.326 29.8958 100.812 29.3828 100.812 28.75V16.1458C100.812 15.513 101.326 15 101.958 15H118.573C122.686 15 126.021 18.3345 126.021 22.4479C126.021 25.8594 123.727 28.7351 120.598 29.6172L124.865 46.7304C125.018 47.3444 124.644 47.9663 124.03 48.1194L119.589 49.2267C118.975 49.3798 118.353 49.0061 118.2 48.3921C118.185 48.3336 118.175 48.274 118.17 48.2139C117.801 43.9542 117.388 40.9081 116.931 39.0756C116.471 37.2324 115.37 34.2196 113.626 30.0372L113.626 30.0372C113.607 29.9905 113.591 29.9433 113.578 29.8958V29.8958Z" fill="#832F9C"/>
<path fill-rule="evenodd" clip-rule="evenodd" d="M96.6111 26.4583C92.6199 26.4583 89.2244 25.5018 87.966 24.1667H66.0556C64.368 24.1667 63 23.6537 63 23.0208C63 22.388 64.368 21.875 66.0556 21.875H87.966C89.2244 20.5399 92.6199 19.5833 96.6111 19.5833V18.4375H99.6667V27.6042H96.6111V26.4583Z" fill="#832F9C"/>
</svg>
