<svg width="45" height="45" viewBox="0 0 45 45" fill="none" xmlns="http://www.w3.org/2000/svg">
<path d="M32.7178 22.9227C32.269 20.3043 31.0349 17.9288 29.1544 16.0395C27.1724 14.0567 24.6563 12.8034 21.879 12.4107L22.1589 10.4092C25.3671 10.858 28.285 12.308 30.5761 14.6086C32.7557 16.7878 34.1866 19.5464 34.7103 22.5766L32.7178 22.9227ZM21.6169 17.5918L21.8977 15.5907C23.8331 15.8619 25.5918 16.7408 26.9761 18.1251C28.2942 19.4436 29.1544 21.0991 29.463 22.9227L27.4714 23.2687C27.2285 21.8566 26.5638 20.5755 25.5448 19.556C24.4695 18.4803 23.1131 17.7977 21.6169 17.5918ZM29.9122 32.1256C29.4168 32.6306 28.8932 33.0981 28.4256 33.6218C27.7426 34.3888 26.8825 34.6321 25.9095 34.576C24.4883 34.5011 23.1693 34.024 21.9064 33.4067C19.0917 32.0416 16.6883 30.1428 14.6772 27.7485C13.1901 25.9812 11.9652 24.0545 11.1511 21.8753C10.7585 20.8184 10.4782 19.7431 10.5622 18.6022C10.6183 17.9005 10.8804 17.3019 11.3949 16.8065C11.956 16.2733 12.4797 15.7213 13.0313 15.1789C13.7517 14.468 14.6493 14.4776 15.3693 15.1789C15.8186 15.6186 16.2487 16.0582 16.6883 16.4979C17.1184 16.928 17.5485 17.3489 17.969 17.779C18.7177 18.5365 18.7177 19.4158 17.969 20.1732C17.4362 20.7156 16.9034 21.258 16.351 21.7817C16.2112 21.9219 16.1925 22.0342 16.2674 22.2118C16.6226 23.0724 17.1463 23.8394 17.7261 24.5503C18.8954 25.9903 20.2235 27.2719 21.8133 28.2631C22.1502 28.4781 22.5241 28.6279 22.8789 28.8242C23.0569 28.9269 23.188 28.8895 23.3281 28.7402C23.8614 28.1882 24.4134 27.6458 24.9558 27.1034C25.6758 26.3925 26.5738 26.3925 27.2843 27.1034C28.1636 27.9732 29.0333 28.8429 29.9031 29.7218C30.6514 30.4888 30.6514 31.3869 29.9122 32.1256ZM38.4043 6.59367C29.6132 -2.1979 15.3693 -2.1979 6.58734 6.59367C-1.8673 15.0479 -2.18508 28.5717 5.64315 37.4099L5.87691 37.5966C5.02544 39.4297 3.56671 41.6929 1.24736 42.8343C0.480343 43.2082 0.658377 44.3492 1.49984 44.4802C4.03422 44.8728 7.67258 44.4332 11.0671 41.8709L11.1142 41.9084C19.7373 46.9772 31.0162 45.8175 38.423 38.4102C47.1954 29.6286 47.1954 15.3752 38.4043 6.59367Z" fill="#832F9C"/>
</svg>
